<svg width="45" height="83" viewBox="0 0 45 83" fill="none" xmlns="http://www.w3.org/2000/svg">
<path fill-rule="evenodd" clip-rule="evenodd" d="M23.316 30.0764C23.3686 30.2128 23.3009 30.3661 23.1645 30.4189C23.028 30.4715 22.8747 30.4038 22.822 30.2674C22.4017 29.1865 22.2102 26.9504 22.3829 24.9087C22.5257 23.2196 22.9215 21.6432 23.6484 20.9108C26.0391 18.5023 26.227 18.3884 28.6693 16.9082C28.8358 16.8073 29.0187 16.6964 29.5015 16.4021C31.0705 15.4455 31.5817 15.0228 32.9488 13.8921L32.9605 13.8825C33.5112 13.4269 35.0397 11.9644 36.1346 10.6807C36.7984 9.90262 37.2956 9.21346 37.2814 8.92172C37.2806 8.89832 37.2816 8.85995 37.2831 8.82318V8.82231C37.2833 8.81479 37.2836 8.8062 37.2836 8.77294C37.2836 8.62627 37.4025 8.50729 37.5493 8.50729C37.696 8.50729 37.8149 8.62627 37.8149 8.77294C37.8149 8.77795 37.8141 8.80334 37.8124 8.84103H37.8123C37.8115 8.8656 37.8107 8.89085 37.8107 8.89704C37.8325 9.34421 37.2789 10.1561 36.5373 11.0255C35.4212 12.3339 33.8613 13.8264 33.2988 14.2915L33.2871 14.3012C31.9011 15.4476 31.3829 15.8761 29.7776 16.8548C29.6499 16.9327 29.2804 17.1566 28.9432 17.3609C26.5556 18.8081 26.3719 18.9195 24.0241 21.2847C23.3956 21.9177 23.0457 23.3722 22.9121 24.9524C22.7454 26.9247 22.9216 29.0626 23.316 30.0767V30.0764Z" fill="#009035"/>
<path fill-rule="evenodd" clip-rule="evenodd" d="M23.8362 21.0977C23.7984 20.9367 26.8982 16.1665 27.3549 15.2872C28.3937 13.2877 30.3201 7.87472 29.2748 5.66983" fill="#009035"/>
<path fill-rule="evenodd" clip-rule="evenodd" d="M24.0946 21.0373C24.1278 21.1801 24.0391 21.3228 23.8964 21.356C23.7537 21.3893 23.611 21.3004 23.5778 21.1578C23.5321 20.9636 24.4866 19.4389 25.4299 17.9319C26.1743 16.7427 26.9115 15.5648 27.1194 15.1647C27.7241 14.0007 28.6339 11.6632 29.0671 9.49296C29.362 8.01538 29.4359 6.62842 29.035 5.78294C28.9726 5.65057 29.0292 5.49256 29.1616 5.43013C29.294 5.36762 29.452 5.42427 29.5145 5.55673C29.9711 6.51978 29.9026 8.02079 29.5881 9.59666C29.1447 11.818 28.2113 14.2148 27.5905 15.4096C27.3864 15.8027 26.6359 17.0016 25.8782 18.212C24.9937 19.6252 24.0905 21.0199 24.0946 21.0373Z" fill="#009035"/>
<path fill-rule="evenodd" clip-rule="evenodd" d="M22.3469 30.2674C22.2941 30.4038 22.1408 30.4715 22.0044 30.4189C21.868 30.3662 21.8001 30.2128 21.8529 30.0764C22.2472 29.0624 22.4235 26.9244 22.2567 24.9522C22.1231 23.3719 21.7732 21.9175 21.1447 21.2845C18.797 18.9193 18.6132 18.8079 16.2256 17.3607C15.8885 17.1564 15.519 16.9324 15.3912 16.8545C13.7859 15.8759 13.2678 15.4473 11.8817 14.301L11.87 14.2913C11.3076 13.8262 9.74762 12.3337 8.63147 11.0252C7.88987 10.1559 7.33631 9.34397 7.35813 8.89679C7.35846 8.89094 7.35754 8.86541 7.35645 8.84084C7.35478 8.80315 7.35394 8.77771 7.35394 8.77269C7.35394 8.62603 7.47295 8.50705 7.61961 8.50705C7.76636 8.50705 7.88528 8.62603 7.88528 8.77269C7.88528 8.80595 7.88561 8.81451 7.88587 8.82212H7.88578L7.88587 8.82293C7.8867 8.8597 7.88837 8.89808 7.88754 8.92148C7.87333 9.21322 8.37065 9.90238 9.03436 10.6805C10.1293 11.9641 11.6578 13.4267 12.2086 13.8822L12.2202 13.8918C13.5873 15.0225 14.0985 15.4453 15.6674 16.4018C16.1504 16.6961 16.3332 16.807 16.4998 16.908C18.9419 18.3882 19.1299 18.5021 21.5206 20.9105C22.2475 21.6429 22.6434 23.2193 22.7861 24.9084C22.9587 26.9501 22.7673 29.1863 22.347 30.2671L22.3469 30.2674Z" fill="#009035"/>
<path fill-rule="evenodd" clip-rule="evenodd" d="M21.3326 21.0977C21.3704 20.9367 18.2706 16.1665 17.8138 15.2872C16.7751 13.2877 14.8487 7.87472 15.8941 5.66983" fill="#009035"/>
<path fill-rule="evenodd" clip-rule="evenodd" d="M21.591 21.1578C21.5577 21.3005 21.4151 21.3893 21.2724 21.3561C21.1297 21.3228 21.0409 21.1801 21.0742 21.0374C21.0784 21.0199 20.1752 19.6254 19.2908 18.2123C18.5329 17.0018 17.7825 15.8028 17.5782 15.4097C16.9575 14.2148 16.0241 11.8181 15.5807 9.59671C15.2661 8.02084 15.1978 6.51983 15.6543 5.55678C15.7168 5.4244 15.8748 5.36767 16.0071 5.43018C16.1395 5.49261 16.1963 5.65062 16.1337 5.78299C15.7329 6.62846 15.8067 8.01542 16.1017 9.49301C16.5349 11.6632 17.4447 14.0008 18.0494 15.1647C18.2572 15.5649 18.9946 16.7429 19.739 17.9322C20.6823 19.4391 21.6366 20.9635 21.591 21.1578Z" fill="#009035"/>
<path fill-rule="evenodd" clip-rule="evenodd" d="M22.856 26.9277C22.856 27.0744 22.737 27.1934 22.5903 27.1934C22.4436 27.1934 22.3246 27.0744 22.3246 26.9277V4.10069C22.3246 3.95394 22.4436 3.83499 22.5903 3.83499C22.737 3.83499 22.856 3.95394 22.856 4.10069V26.9277Z" fill="#009035"/>
<path fill-rule="evenodd" clip-rule="evenodd" d="M38.5253 4.97549C39.5592 6.59398 39.0586 8.45682 37.4728 9.23042C36.5022 7.72734 36.8943 5.89409 38.5253 4.97549Z" fill="#009035"/>
<path fill-rule="evenodd" clip-rule="evenodd" d="M28.0747 1.78171C29.7999 2.62559 30.342 4.47683 29.3905 5.96277C27.7795 5.18441 27.1602 3.4149 28.0747 1.78171Z" fill="#009035"/>
<path fill-rule="evenodd" clip-rule="evenodd" d="M6.67199 5.04099C5.63807 6.65947 6.13865 8.52241 7.72446 9.29601C8.69495 7.79293 8.30293 5.95966 6.67199 5.04099Z" fill="#009035"/>
<path fill-rule="evenodd" clip-rule="evenodd" d="M17.1225 1.8472C15.3973 2.69116 14.8552 4.5424 15.8066 6.02826C17.4177 5.2499 18.037 3.48048 17.1225 1.8472Z" fill="#009035"/>
<path fill-rule="evenodd" clip-rule="evenodd" d="M22.5902 4.38331C23.9826 3.06041 23.944 1.13178 22.5902 0C21.2872 1.22613 21.2276 3.09993 22.5902 4.38331Z" fill="#009035"/>
<path fill-rule="evenodd" clip-rule="evenodd" d="M26.3834 7.75684C28.2608 8.16156 29.2317 9.82833 28.6651 11.4993C26.9143 11.1308 25.8881 9.56193 26.3834 7.75684Z" fill="#009035"/>
<path fill-rule="evenodd" clip-rule="evenodd" d="M32.4321 6.81134C30.5123 6.8634 29.2509 8.32288 29.5001 10.0696C31.2889 10.0298 32.5865 8.67677 32.4321 6.81134Z" fill="#009035"/>
<path fill-rule="evenodd" clip-rule="evenodd" d="M34.3631 8.79575C35.5989 10.2658 35.3452 12.1781 33.8736 13.1516C32.7156 11.7876 32.8657 9.91892 34.3631 8.79575Z" fill="#009035"/>
<path fill-rule="evenodd" clip-rule="evenodd" d="M39.3181 11.7543C37.7689 10.6192 35.8779 10.9999 35.0047 12.5331C36.4427 13.5976 38.2973 13.3232 39.3181 11.7543Z" fill="#009035"/>
<path fill-rule="evenodd" clip-rule="evenodd" d="M18.7396 7.75684C16.8622 8.16156 15.8912 9.82833 16.4579 11.4993C18.2087 11.1308 19.235 9.56193 18.7396 7.75684Z" fill="#009035"/>
<path fill-rule="evenodd" clip-rule="evenodd" d="M12.8483 6.81134C14.7682 6.8634 16.0295 8.32288 15.7803 10.0696C13.9915 10.0298 12.6939 8.67677 12.8483 6.81134Z" fill="#009035"/>
<path fill-rule="evenodd" clip-rule="evenodd" d="M10.9173 8.79575C9.6814 10.2658 9.93519 12.1781 11.4068 13.1516C12.5647 11.7876 12.4147 9.91892 10.9173 8.79575Z" fill="#009035"/>
<path fill-rule="evenodd" clip-rule="evenodd" d="M5.84985 11.7543C7.39906 10.6192 9.29007 10.9999 10.1633 12.5331C8.72514 13.5976 6.87065 13.3232 5.84985 11.7543Z" fill="#009035"/>
<path fill-rule="evenodd" clip-rule="evenodd" d="M25.8346 4.43384C23.9141 4.41863 22.6025 5.83302 22.7904 7.58748C24.5795 7.61029 25.9237 6.30362 25.8346 4.43384Z" fill="#009035"/>
<path fill-rule="evenodd" clip-rule="evenodd" d="M19.328 6.09833C21.2485 6.08312 22.5601 7.49751 22.3721 9.25197C20.5831 9.27478 19.2389 7.96802 19.328 6.09833Z" fill="#009035"/>
<path fill-rule="evenodd" clip-rule="evenodd" d="M14.7862 12.0798C13.5504 13.5499 13.8041 15.4621 15.2757 16.4356C16.4337 15.0716 16.2836 13.203 14.7862 12.0798Z" fill="#009035"/>
<path fill-rule="evenodd" clip-rule="evenodd" d="M9.71872 15.0383C11.2679 13.9033 13.1589 14.2839 14.0321 15.8172C12.5941 16.8816 10.7395 16.6073 9.71872 15.0383Z" fill="#009035"/>
<path fill-rule="evenodd" clip-rule="evenodd" d="M30.944 11.8549C32.1799 13.325 31.9261 15.2371 30.4545 16.2107C29.2965 14.8467 29.4466 12.9781 30.944 11.8549Z" fill="#009035"/>
<path fill-rule="evenodd" clip-rule="evenodd" d="M35.899 14.8134C34.3498 13.6783 32.4588 14.059 31.5856 15.5923C33.0236 16.6567 34.8782 16.3823 35.899 14.8134Z" fill="#009035"/>
<path fill-rule="evenodd" clip-rule="evenodd" d="M19.0827 10.8543C17.388 11.7578 16.9108 13.6269 17.9135 15.0787C19.4964 14.2446 20.0536 12.4545 19.0827 10.8543Z" fill="#009035"/>
<path fill-rule="evenodd" clip-rule="evenodd" d="M25.8099 11.3123C27.5046 12.216 27.9818 14.085 26.979 15.5367C25.3962 14.7026 24.839 12.9127 25.8099 11.3123Z" fill="#009035"/>
<path fill-rule="evenodd" clip-rule="evenodd" d="M25.3524 9.72641C23.4427 9.92965 22.3003 11.4839 22.6865 13.2057C24.4665 13.025 25.6534 11.5739 25.3524 9.72641Z" fill="#009035"/>
<path fill-rule="evenodd" clip-rule="evenodd" d="M19.8709 13.5985C21.7806 13.8017 22.923 15.3561 22.5368 17.0777C20.7568 16.8971 19.5699 15.4459 19.8709 13.5985Z" fill="#009035"/>
<path fill-rule="evenodd" clip-rule="evenodd" d="M25.3524 15.2148C23.4427 15.4181 22.3003 16.9723 22.6865 18.694C24.4665 18.5134 25.6534 17.0623 25.3524 15.2148Z" fill="#009035"/>
<path fill-rule="evenodd" clip-rule="evenodd" d="M8.01783 38.1747L7.16359 38.3336L6.77842 36.9549L6.11395 37.0788L6.22877 38.5077L5.47691 38.6477L5.0726 32.9065L6.32831 32.6726L8.01783 38.1747ZM5.82255 33.5674L6.05688 36.3262L6.56781 36.2309L5.82255 33.5674ZM9.86037 34.0644L9.71278 33.005C9.69924 32.907 9.67226 32.847 9.63147 32.8252C9.59103 32.8034 9.51948 32.7997 9.41635 32.814C9.31331 32.8283 9.24421 32.8517 9.20886 32.8842C9.17309 32.9167 9.16248 32.9818 9.17593 33.0799L9.73124 37.0665C9.7447 37.1646 9.77296 37.2245 9.81625 37.2461C9.85912 37.2674 9.93207 37.2709 10.0352 37.2567C10.138 37.2422 10.2059 37.2191 10.2388 37.1871C10.272 37.1551 10.2815 37.09 10.268 36.9918L10.1 35.7856L10.9534 35.6667L11.1212 36.8729C11.1452 37.0447 11.1495 37.184 11.1345 37.291C11.0857 37.6227 10.7499 37.8319 10.1273 37.9185C9.73977 37.9726 9.46048 37.9591 9.28917 37.8778C9.0698 37.7736 8.93499 37.5424 8.88502 37.1845L8.33004 33.1976C8.28006 32.8397 8.34659 32.5805 8.52927 32.4199C8.67184 32.2953 8.93692 32.206 9.32426 32.152C9.94702 32.0653 10.3273 32.1747 10.4646 32.4805C10.5084 32.5796 10.5424 32.7146 10.5663 32.8861L10.7136 33.9455L9.86037 34.0644ZM13.4198 33.6697L13.3187 32.6049C13.3092 32.5063 13.2848 32.4453 13.2452 32.4218C13.2056 32.3981 13.1344 32.3913 13.0308 32.4012C12.9274 32.4109 12.8573 32.4313 12.8202 32.4621C12.7833 32.4929 12.7696 32.5576 12.779 32.6561L13.1598 36.6633C13.1689 36.7619 13.1945 36.823 13.2367 36.8464C13.2787 36.8697 13.3514 36.8765 13.4549 36.8666C13.5584 36.8568 13.6273 36.8365 13.6617 36.8059C13.6963 36.7753 13.7086 36.7107 13.6991 36.6121L13.584 35.3998L14.4418 35.3182L14.5569 36.5306C14.5733 36.7034 14.5716 36.8426 14.5519 36.949C14.4886 37.278 14.1439 37.4723 13.518 37.5317C13.1288 37.5689 12.8502 37.5431 12.6827 37.4545C12.4679 37.3408 12.3433 37.1039 12.3092 36.7441L11.9285 32.7368C11.8944 32.3772 11.9721 32.1212 12.1616 31.9688C12.3094 31.8504 12.578 31.7727 12.9676 31.7358C13.5934 31.6763 13.9684 31.8021 14.0925 32.1138C14.1319 32.2145 14.1598 32.351 14.1761 32.5234L14.2773 33.5882L13.4198 33.6697ZM15.5959 32.4341C15.5767 32.0684 15.6653 31.8158 15.8612 31.6765C16.014 31.5648 16.2858 31.4982 16.6764 31.4778C17.3041 31.4448 17.6737 31.5867 17.7842 31.9032C17.8193 32.0056 17.8414 32.1432 17.8506 32.3161L18.0609 36.3359C18.07 36.5091 18.0626 36.6481 18.0382 36.7536C17.961 37.0798 17.6085 37.2593 16.9807 37.292C16.5901 37.3126 16.313 37.2751 16.1493 37.1795C15.9399 37.0617 15.8255 36.8199 15.8062 36.4539L15.5959 32.4341ZM17.2006 36.381L16.9903 32.3612C16.9852 32.2622 16.9632 32.2003 16.9246 32.175C16.886 32.1498 16.8152 32.1399 16.7112 32.1453C16.6074 32.1508 16.5364 32.1681 16.4984 32.1972C16.4601 32.2266 16.4437 32.2906 16.449 32.3893L16.6593 36.4091C16.6643 36.5081 16.6875 36.5702 16.7284 36.5953C16.7694 36.6202 16.8419 36.6302 16.9457 36.6247C17.0497 36.6192 17.1191 36.6019 17.1549 36.5731C17.1906 36.5439 17.2058 36.4797 17.2006 36.381ZM19.3857 37.0852L19.3259 31.3674L20.165 31.3586L20.2169 36.3411L20.7442 36.3357L20.6924 31.3529L21.5317 31.3441L21.5836 36.3269L21.8211 36.3245L21.8382 37.9657L21.0879 37.9738L21.0787 37.0676L19.3857 37.0852ZM23.1214 31.3809L23.9084 31.4056L23.8127 34.4562L24.5465 31.4257L25.3335 31.4503L25.1544 37.1657L24.3674 37.1411L24.4631 34.0902L23.7293 37.121L22.9423 37.0963L23.1214 31.3809ZM28.798 37.2975L27.9302 37.2522L27.8786 35.8216L27.2037 35.7864L26.981 37.2024L26.217 37.1624L27.1687 31.486L28.4443 31.5529L28.798 37.2975ZM27.7431 32.3045L27.3245 35.0413L27.8435 35.0686L27.7431 32.3045ZM29.8621 37.4107L30.4029 31.718L31.2381 31.7973L30.767 36.758L31.292 36.8078L31.7631 31.8471L32.5986 31.9265L32.1275 36.8871L32.3639 36.9097L32.2087 38.5437L31.4618 38.4727L31.5475 37.5708L29.8621 37.4107ZM34.2062 32.2041L34.986 32.3128L34.565 35.3358L35.6185 32.401L36.3981 32.5094L35.6095 38.173L34.8299 38.0645L35.2508 35.0413L34.1972 37.9764L33.4175 37.8679L34.2062 32.2041ZM39.0371 38.8008L38.2117 38.647L38.6577 36.2523L37.607 38.5344L36.7297 38.3711L37.8097 36.1021C37.7219 36.0604 37.6456 36.0083 37.5818 35.9462C37.4253 35.7861 37.4101 35.368 37.5361 34.6914L37.6612 34.0194C37.7609 33.484 37.8974 33.1557 38.071 33.0346C38.2447 32.9133 38.5993 32.9027 39.1346 33.0024L40.0839 33.1792L39.0371 38.8008ZM39.1337 33.6972L38.8271 33.6401C38.7786 33.6309 38.7433 33.6294 38.7222 33.6354C38.6476 33.6569 38.5751 33.8573 38.5045 34.2371L38.3889 34.8577C38.3145 35.2569 38.3103 35.4827 38.3759 35.535C38.3977 35.5542 38.4278 35.5672 38.4669 35.5746L38.7734 35.6317L39.1337 33.6972Z" fill="#878678"/>
<path fill-rule="evenodd" clip-rule="evenodd" d="M2.71501 47.4597V48.9261C2.71501 48.9261 2.77308 49.7102 2.11974 49.7102C1.56801 49.7102 1.56802 48.9261 1.56802 48.9261V42.6395C1.56802 42.6395 1.56801 41.8554 2.11974 41.8554C2.77308 41.8554 2.71501 42.6395 2.71501 42.6395V44.1058H4.1814V42.6395C4.1814 42.6395 4.19586 40.331 2.09059 40.331C-0.0146072 40.331 2.73813e-06 42.6395 2.73813e-06 42.6395V48.9261C2.73813e-06 48.9261 -0.0146072 51.2346 2.09059 51.2346C4.19586 51.2346 4.1814 48.9261 4.1814 48.9261V47.4597H2.71501ZM4.85387 51.1186H8.43992V49.5069H6.42189V46.5741H7.87375V44.8609H6.42189V42.0586H8.43992V40.4471H4.85387V51.1186ZM12.3067 51.1186L13.3085 44.4108L13.3665 43.9607H13.4537V44.4108V51.1186H14.9056V40.4471H12.9889L12.0598 45.3254L11.9871 45.8918H11.9582L11.8855 45.3254L10.9564 40.4471H9.03994V51.1186H10.4919V44.4108V43.9607H10.5788L10.637 44.4108L11.6389 51.1186H12.3067ZM15.7958 51.1186H19.3818V49.5069H17.3638V46.5741H18.8157V44.8609H17.3638V42.0586H19.3818V40.4471H15.7958V51.1186ZM21.3755 51.1186H19.9818V40.4471H21.4191V46.0079V46.5015H21.5062L21.637 46.0079L23.1614 40.4471H24.5553V51.1186H23.1179V45.5578V45.0641H23.0309L22.9001 45.5578L21.3755 51.1186ZM23.1034 38.1676C23.1034 38.1676 22.8129 38.5015 22.2612 38.5015C21.7386 38.5015 21.4482 38.1676 21.4482 38.1676L20.6641 38.8355C20.6641 38.8355 21.245 39.5178 22.2612 39.5178C23.2486 39.5178 23.8584 38.8355 23.8584 38.8355L23.1034 38.1676ZM28.2332 51.1186H29.8014V40.4471H28.2332V44.8609H27.0137V40.4471H25.4458C25.4458 40.5196 25.4458 51.1186 25.4458 51.1186H27.0137V46.4724H28.2332V51.1186ZM34.7714 48.9261V42.6395C34.7714 42.6395 34.7858 40.331 32.6806 40.331C30.5753 40.331 30.59 42.6395 30.59 42.6395V48.9261C30.59 48.9261 30.5753 51.2346 32.6806 51.2346C34.7858 51.2346 34.7714 48.9261 34.7714 48.9261ZM33.2034 42.6395V48.9261C33.2034 48.9261 33.2323 49.7102 32.6806 49.7102C32.1289 49.7102 32.158 48.9261 32.158 48.9261V42.6395C32.158 42.6395 32.1289 41.8554 32.6806 41.8554C33.2323 41.8554 33.2034 42.6395 33.2034 42.6395ZM39.2914 40.4471C35.7199 40.4471 35.5602 40.4471 35.5602 40.4471V51.1186H37.1282V42.0586H39.2914V40.4471ZM43.7388 48.9261V42.6395C43.7388 42.6395 43.7533 40.331 41.648 40.331C39.5428 40.331 39.5574 42.6395 39.5574 42.6395V48.9261C39.5574 48.9261 39.5428 51.2346 41.648 51.2346C43.7533 51.2346 43.7388 48.9261 43.7388 48.9261ZM42.1708 42.6395V48.9261C42.1708 48.9261 42.1997 49.7102 41.648 49.7102C41.0963 49.7102 41.1255 48.9261 41.1255 48.9261V42.6395C41.1255 42.6395 41.0963 41.8554 41.648 41.8554C42.1997 41.8554 42.1708 42.6395 42.1708 42.6395Z" fill="#878678"/>
<path fill-rule="evenodd" clip-rule="evenodd" d="M5.54039 52.9738H0.670654V66.9003H2.71717C4.49811 66.9003 6.31717 65.9341 6.31717 62.7318C6.31717 59.5298 4.49811 58.5446 2.71717 58.5446V55.0769H5.54039V52.9738ZM2.71717 60.6287C4.00556 60.6287 4.25193 61.1024 4.25193 62.656C4.25193 64.2098 4.00556 64.8162 2.71717 64.8162V60.6287ZM10.805 59.6435L10.9756 58.9992H11.0893V59.6435V66.9003H12.9652V52.9738H11.1461L9.15676 60.2307L8.98622 60.8751H8.87247V60.2307V52.9738H6.99658V66.9003H8.81565L10.805 59.6435ZM15.6719 60.6097C17.4531 60.7045 17.2256 61.7276 17.2256 63.4899C17.2256 64.2856 17.2256 65.2518 16.5813 65.2518C16.0699 65.2518 15.8993 64.7594 15.8803 62.8834H13.872C13.872 64.4562 14.0234 67.052 16.5813 67.052C19.1393 67.052 19.2341 63.6984 19.2341 63.3383C19.2341 61.7276 19.0448 60.2876 18.0593 59.5108L18.0782 59.4919C18.7036 58.8665 19.0637 57.8813 19.0637 55.8161C19.0637 55.456 18.969 52.8222 16.411 52.8222C13.8531 52.8222 13.7962 55.4181 13.7962 56.9908H15.8045C15.8235 55.1149 15.8993 54.6224 16.411 54.6224C17.0551 54.6224 17.0551 55.6266 17.0551 56.4222C17.0551 58.1845 17.2067 58.8096 15.5013 58.9044V60.6097H15.6719ZM23.779 66.9003H25.8252V52.9738H23.779V58.7338H22.1873V52.9738H20.1409C20.1409 53.0686 20.1409 66.9003 20.1409 66.9003H22.1873V60.8372H23.779V66.9003ZM26.9972 66.9003H31.6774V64.7972H29.0436V60.9698H30.9383V58.7338H29.0436V55.0769H31.6774V52.9738H26.9972V66.9003ZM35.881 62.1256V64.0392C35.881 64.0392 35.9568 65.0623 35.1039 65.0623C34.384 65.0623 34.384 64.0392 34.384 64.0392V55.835C34.384 55.835 34.384 54.8119 35.1039 54.8119C35.9568 54.8119 35.881 55.835 35.881 55.835V57.7486H37.7945V55.835C37.7945 55.835 37.8135 52.8222 35.066 52.8222C32.3188 52.8222 32.3378 55.835 32.3378 55.835V64.0392C32.3378 64.0392 32.3188 67.052 35.066 67.052C37.8135 67.052 37.7945 64.0392 37.7945 64.0392V62.1256H35.881ZM40.1035 66.9003L40.4825 64.0581H42.453L42.832 66.9003H44.8216L42.7183 52.9738H40.2172L38.1141 66.9003H40.1035ZM42.1689 61.8982H40.7668L41.354 57.5023L41.4109 56.7634H41.5246L41.5814 57.5023L42.1689 61.8982Z" fill="#878678"/>
<path fill-rule="evenodd" clip-rule="evenodd" d="M7.97613 68.6592C7.97613 69.3777 7.97613 70.0948 7.97613 70.8118C7.97613 71.5289 7.97613 72.246 7.97613 72.9631C8.12063 72.2633 8.26871 71.5594 8.41245 70.8452C8.55769 70.1253 8.70762 69.3967 8.85495 68.6592C9.14118 68.6592 9.4273 68.6592 9.71345 68.6592C9.56586 69.4185 9.42204 70.1706 9.27688 70.9134C9.13306 71.648 8.98791 72.3765 8.84317 73.098C9.09095 73.1357 9.29871 73.248 9.46568 73.4392C9.63198 73.6296 9.71345 73.876 9.71345 74.1721C9.71345 74.9501 9.71345 75.7265 9.71345 76.5031C9.71345 77.2782 9.71345 78.0564 9.71345 78.8315C9.4273 78.7327 9.14118 78.6339 8.85495 78.5354C8.85495 77.7821 8.85495 77.0285 8.85495 76.2738C8.85495 75.5204 8.85495 74.7657 8.85495 74.0124C8.56004 73.9559 8.26796 73.902 7.97613 73.8469C7.97613 74.5786 7.97613 75.3087 7.97613 76.0388C7.97613 76.7703 7.97613 77.5004 7.97613 78.2305C7.68999 78.1317 7.40378 78.0331 7.12073 77.9358C7.12073 76.3915 7.12073 74.8441 7.12073 73.2997C7.12073 71.7539 7.12073 70.2066 7.12073 68.6592C7.40378 68.6592 7.68999 68.6592 7.97613 68.6592ZM10.9877 73.4304C11.2798 73.4754 11.5716 73.5218 11.8668 73.5668C11.8668 72.9223 11.8668 72.2765 11.8668 71.632C11.8668 70.986 11.8668 70.3416 11.8668 69.6956C11.5716 69.6871 11.2798 69.6769 10.9877 69.6667C10.9877 70.2952 10.9877 70.9222 10.9877 71.5492C10.9877 72.1763 10.9877 72.8034 10.9877 73.4304ZM11.8668 68.6592C12.0731 68.6592 12.2686 68.7748 12.4507 69.0076C12.6343 69.2422 12.725 69.4824 12.725 69.7248C12.725 71.4171 12.725 73.1082 12.725 74.7992C12.725 76.4915 12.725 78.1826 12.725 79.8736C12.4389 79.7734 12.1527 79.6748 11.8668 79.576C11.8668 78.7443 11.8668 77.9098 11.8668 77.0766C11.8668 76.2435 11.8668 75.4101 11.8668 74.5755C11.5716 74.5203 11.2798 74.4654 10.9877 74.4116C10.9877 75.2229 10.9877 76.0329 10.9877 76.8428C10.9877 77.6527 10.9877 78.4641 10.9877 79.2725C10.7015 79.174 10.4153 79.0738 10.1292 78.975C10.1292 77.4206 10.1292 75.863 10.1292 74.3085C10.1292 72.7525 10.1292 71.1952 10.1292 69.639C10.1292 69.4156 10.2251 69.2005 10.4094 68.9859C10.5939 68.7711 10.7871 68.6592 10.9877 68.6592C11.2798 68.6592 11.5716 68.6592 11.8668 68.6592ZM13.141 69.7378C13.141 69.4358 13.226 69.1813 13.3948 68.9743C13.5653 68.7649 13.7661 68.6592 13.9993 68.6592C14.2914 68.6592 14.5835 68.6592 14.8784 68.6592C15.1024 68.6592 15.3033 68.7869 15.4801 69.0411C15.6575 69.2962 15.7485 69.5591 15.7485 69.8233C15.7485 70.4186 15.7485 71.0136 15.7485 71.6073C15.7485 72.2009 15.7485 72.796 15.7485 73.3897C15.7485 73.9298 15.5893 74.2418 15.2735 74.323C15.4417 74.4405 15.5623 74.5627 15.6364 74.6873C15.7098 74.811 15.7485 75.0183 15.7485 75.3027C15.7485 76.0518 15.7485 76.8006 15.7485 77.5468C15.7485 78.2928 15.7485 79.0418 15.7485 79.7878C15.7485 80.1145 15.6629 80.3542 15.4919 80.5122C15.3237 80.6676 15.1167 80.6998 14.8784 80.6181C14.5827 80.517 14.2915 80.4127 13.9993 80.3118C13.7607 80.2298 13.5586 80.0583 13.3917 79.7966C13.2254 79.5358 13.141 79.2623 13.141 78.9694C13.141 78.4162 13.141 77.8633 13.141 77.3102C13.4272 77.3857 13.7131 77.4611 13.9993 77.5352C13.9993 78.1028 13.9993 78.6702 13.9993 79.2378C14.2942 79.3292 14.5922 79.4237 14.8902 79.518C14.8902 78.7239 14.8902 77.9285 14.8902 77.1361C14.8902 76.3434 14.8902 75.5482 14.8902 74.7527C14.5804 74.699 14.2707 74.6451 13.964 74.5902C13.964 74.2316 13.964 73.8731 13.964 73.5145C14.2707 73.5595 14.5804 73.6045 14.8902 73.6481C14.8902 73.0066 14.8902 72.3635 14.8902 71.722C14.8902 71.0805 14.8902 70.4373 14.8902 69.7958C14.5922 69.7856 14.2942 69.7755 13.9993 69.7653C13.9993 70.2125 13.9993 70.658 13.9993 71.1051C13.7131 71.0848 13.4272 71.0629 13.141 71.0426C13.141 70.6072 13.141 70.1732 13.141 69.7378ZM17.0198 74.368C17.3119 74.413 17.6068 74.4595 17.9017 74.5059C17.9017 73.7367 17.9017 72.9687 17.9017 72.1995C17.9017 71.4316 17.9017 70.6623 17.9017 69.8946C17.6068 69.8844 17.3119 69.8743 17.0198 69.8655C17.0198 70.6159 17.0198 71.3664 17.0198 72.1168C17.0198 72.867 17.0198 73.6176 17.0198 74.368ZM17.9017 68.6592C18.1083 68.6592 18.3 68.7987 18.4829 69.0731C18.6686 69.3516 18.7572 69.6347 18.7572 69.9221C18.7572 71.9295 18.7572 73.9355 18.7572 75.9415C18.7572 77.9474 18.7572 79.9548 18.7572 81.9594C18.471 81.8592 18.1849 81.7606 17.9017 81.6633C17.9017 80.6719 17.9017 79.6777 17.9017 78.6863C17.9017 77.6935 17.9017 76.7007 17.9017 75.7062C17.6068 75.6512 17.3119 75.5961 17.0198 75.5423C17.0198 76.5118 17.0198 77.4815 17.0198 78.4511C17.0198 79.4206 17.0198 80.3902 17.0198 81.3583C16.7337 81.2598 16.4475 81.1596 16.1644 81.0623C16.1644 79.1927 16.1644 77.3204 16.1644 75.4508C16.1644 73.5799 16.1644 71.7089 16.1644 69.8366C16.1644 69.5693 16.2566 69.3085 16.4416 69.0513C16.6282 68.7919 16.8192 68.6592 17.0198 68.6592C17.3119 68.6592 17.6068 68.6592 17.9017 68.6592ZM20.4768 73.7424C20.5476 72.9036 20.6218 72.0603 20.6924 71.2169C20.7632 70.3691 20.8397 69.5156 20.9133 68.6592C21.1967 68.6592 21.4828 68.6592 21.7687 68.6592C21.6804 69.7335 21.5921 70.8002 21.5063 71.8643C21.421 72.9223 21.3324 73.9748 21.2467 75.0256C21.4945 75.0632 21.6453 75.2026 21.6951 75.4421C21.7455 75.6844 21.7687 76.0125 21.7687 76.4306C21.7687 77.5264 21.7687 78.6223 21.7687 79.7167C21.7687 80.8111 21.7687 81.907 21.7687 83C21.4828 82.8998 21.1967 82.8027 20.9133 82.7039C20.9133 81.6327 20.9133 80.5601 20.9133 79.4888C20.9133 78.4162 20.9133 77.3436 20.9133 76.271C20.6184 76.2157 20.3235 76.1606 20.0314 76.1054C20.0314 77.155 20.0314 78.2059 20.0314 79.2538C20.0314 80.3019 20.0314 81.3512 20.0314 82.399C19.7453 82.3005 19.4593 82.2017 19.176 82.1031C19.176 81.0784 19.176 80.0505 19.176 79.0259C19.176 77.9998 19.176 76.9721 19.176 75.9457C19.176 75.5525 19.1992 75.2533 19.2497 75.0415C19.2997 74.8326 19.4504 74.7453 19.6953 74.7847C19.6066 73.7525 19.5183 72.725 19.4328 71.703C19.3472 70.6841 19.2615 69.6709 19.176 68.6592C19.4593 68.6592 19.7453 68.6592 20.0314 68.6592C20.1053 69.4997 20.1792 70.3444 20.2526 71.1878C20.3266 72.0354 20.4002 72.8889 20.4768 73.7424ZM23.9339 71.5781C23.9339 71.0456 23.9339 70.5129 23.9339 69.9801C23.639 69.9903 23.3469 70.0004 23.0549 70.0106C23.0549 71.9383 23.0549 73.8672 23.0549 75.7948C23.0549 77.7209 23.0549 79.6485 23.0549 81.576C23.3469 81.4789 23.639 81.3816 23.9339 81.2845C23.9339 80.6473 23.9339 80.01 23.9339 79.3742C24.2201 79.2929 24.5062 79.2131 24.7924 79.1319C24.7924 79.7547 24.7924 80.3772 24.7924 81C24.7924 81.2932 24.6998 81.6076 24.5178 81.9449C24.3342 82.2856 24.1405 82.4921 23.9339 82.5674C23.639 82.675 23.3467 82.7816 23.0549 82.8883C22.8542 82.9616 22.6594 82.8899 22.4768 82.669C22.2909 82.4442 22.1966 82.1247 22.1966 81.8113C22.1966 79.8503 22.1966 77.8865 22.1966 75.9242C22.1966 73.9631 22.1966 71.9977 22.1966 70.0353C22.1966 69.7219 22.2918 69.4159 22.4768 69.1122C22.6604 68.8106 22.8544 68.6592 23.0549 68.6592C23.3469 68.6592 23.639 68.6592 23.9339 68.6592C24.1405 68.6592 24.3345 68.8049 24.5178 69.089C24.7003 69.3708 24.7924 69.6566 24.7924 69.9498C24.7924 70.4707 24.7924 70.9918 24.7924 71.5116C24.5062 71.5348 24.2201 71.5563 23.9339 71.5781ZM27.6742 68.6592C27.6742 69.0569 27.6742 69.4532 27.6742 69.851C27.3852 69.8598 27.0959 69.8697 26.8069 69.8799C26.8069 71.8208 26.8069 73.7613 26.8069 75.7005C26.8069 77.6397 26.8069 79.5803 26.8069 81.518C26.512 81.627 26.2199 81.7329 25.9278 81.8388C25.9278 79.8518 25.9278 77.8633 25.9278 75.876C25.9278 73.889 25.9278 71.8991 25.9278 69.9104C25.6419 69.9206 25.3557 69.9308 25.0696 69.941C25.0696 69.5142 25.0696 69.0875 25.0696 68.6592C25.9368 68.6592 26.804 68.6592 27.6742 68.6592ZM28.8217 74.1095C29.1137 74.0617 29.4086 74.0139 29.7036 73.9646C29.7036 73.2679 29.7036 72.5695 29.7036 71.8728C29.7036 71.1748 29.7036 70.478 29.7036 69.7799C29.4086 69.7899 29.1137 69.8 28.8217 69.8102C28.8217 70.5274 28.8217 71.2444 28.8217 71.9601C28.8217 72.6771 28.8217 73.3942 28.8217 74.1095ZM29.7036 68.6592C29.9101 68.6592 30.1014 68.7828 30.2847 69.0221C30.4671 69.2604 30.559 69.5025 30.559 69.7508C30.559 71.4839 30.559 73.2184 30.559 74.9515C30.559 76.6831 30.559 78.4176 30.559 80.1493C30.2728 80.2537 29.9867 80.3568 29.7036 80.4615C29.7036 79.5616 29.7036 78.66 29.7036 77.7603C29.7036 76.8589 29.7036 75.9573 29.7036 75.056C29.4086 75.1142 29.1137 75.1722 28.8217 75.2303C28.8217 76.1563 28.8217 77.0823 28.8217 78.0083C28.8217 78.9328 28.8217 79.8591 28.8217 80.7837C28.5355 80.8868 28.2494 80.9926 27.9662 81.0957C27.9662 79.2205 27.9662 77.345 27.9662 75.4684C27.9662 73.5929 27.9662 71.7177 27.9662 69.8408C27.9662 69.5722 28.0565 69.3059 28.2434 69.0453C28.4282 68.7879 28.621 68.6592 28.8217 68.6592C29.1137 68.6592 29.4086 68.6592 29.7036 68.6592ZM31.8451 68.6592C31.8451 69.4867 31.8451 70.3125 31.8451 71.1371C31.8451 71.9629 31.8451 72.7872 31.8451 73.6133C32.1372 73.5654 32.429 73.5174 32.7242 73.4681C32.7242 72.6669 32.7242 71.8657 32.7242 71.0644C32.7242 70.2632 32.7242 69.462 32.7242 68.6592C33.0102 68.6592 33.2963 68.6592 33.5824 68.6592C33.5824 70.3909 33.5824 72.1239 33.5824 73.8542C33.5824 75.5845 33.5824 77.3144 33.5824 79.0446C33.2963 79.1491 33.0102 79.2538 32.7242 79.3569C32.7242 78.5411 32.7242 77.7238 32.7242 76.9082C32.7242 76.0909 32.7242 75.2738 32.7242 74.4566C32.429 74.516 32.1372 74.5741 31.8451 74.6321C31.8451 75.4741 31.8451 76.3159 31.8451 77.1564C31.8451 77.9967 31.8451 78.8386 31.8451 79.6791C31.5589 79.7836 31.2728 79.888 30.9866 79.9925C30.9866 78.1057 30.9866 76.2157 30.9866 74.3275C30.9866 72.439 30.9866 70.5491 30.9866 68.6592C31.2728 68.6592 31.5589 68.6592 31.8451 68.6592ZM34.8804 73.1153C35.1724 73.0675 35.4643 73.0196 35.7593 72.9703C35.7593 72.4042 35.7593 71.8366 35.7593 71.2704C35.7593 70.7031 35.7593 70.1369 35.7593 69.5707C35.4643 69.5809 35.1724 69.5911 34.8804 69.6013C34.8804 70.1862 34.8804 70.7727 34.8804 71.3576C34.8804 71.9439 34.8804 72.5304 34.8804 73.1153ZM35.7593 68.6592C35.9657 68.6592 36.1576 68.7594 36.3434 68.9539C36.5262 69.1455 36.6177 69.34 36.6177 69.5405C36.6177 70.9395 36.6177 72.3402 36.6177 73.7395C36.6177 75.1375 36.6177 76.5379 36.6177 77.9358C36.3315 78.0402 36.0454 78.1448 35.7593 78.2494C35.7593 77.5177 35.7593 76.7862 35.7593 76.0532C35.7593 75.3217 35.7593 74.5902 35.7593 73.857C35.4643 73.9151 35.1724 73.9731 34.8804 74.0314C34.8804 74.789 34.8804 75.5465 34.8804 76.3029C34.8804 77.059 34.8804 77.8153 34.8804 78.5716C34.5942 78.6747 34.3081 78.7792 34.0218 78.8836C34.0218 77.3422 34.0218 75.7993 34.0218 74.2576C34.0218 72.7162 34.0218 71.1733 34.0218 69.6305C34.0218 69.4097 34.1131 69.1901 34.2993 68.9771C34.4847 68.7649 34.6797 68.6592 34.8804 68.6592C35.1724 68.6592 35.4643 68.6592 35.7593 68.6592Z" fill="#878678"/>
</svg>
