<svg width="49" height="90" viewBox="0 0 49 90" fill="none" xmlns="http://www.w3.org/2000/svg">
<path fill-rule="evenodd" clip-rule="evenodd" d="M9.07741 41.3828L8.15112 41.5552L7.73347 40.0601L7.01297 40.1945L7.13756 41.7439L6.32229 41.8958L5.88379 35.6703L7.2454 35.4167L9.07741 41.3828ZM6.69699 36.387L6.95108 39.3784L7.50511 39.2751L6.69699 36.387ZM11.1 36.932L10.94 35.7833C10.9253 35.677 10.896 35.612 10.8519 35.5883C10.8079 35.5647 10.7304 35.5606 10.6186 35.5763C10.5069 35.5917 10.4319 35.6171 10.3936 35.6523C10.3548 35.6875 10.3432 35.7582 10.3579 35.8645L10.96 40.1873C10.9747 40.2937 11.0052 40.3586 11.0522 40.382C11.0987 40.4051 11.1778 40.409 11.2896 40.3936C11.401 40.3779 11.4748 40.3528 11.5105 40.318C11.5465 40.2833 11.5567 40.2127 11.542 40.1064L11.36 38.7984L12.2852 38.6694L12.4673 39.9774C12.4932 40.1637 12.4979 40.3147 12.4817 40.4308C12.4288 40.7904 12.0645 41.0172 11.3895 41.1113C10.9692 41.1698 10.6664 41.1552 10.4807 41.0671C10.2428 40.9541 10.0967 40.7033 10.0425 40.3152L9.4406 35.9922C9.38641 35.604 9.45864 35.323 9.65664 35.1489C9.81132 35.0138 10.0988 34.9169 10.5187 34.8584C11.194 34.7643 11.6063 34.883 11.7552 35.2146C11.8028 35.322 11.8395 35.4684 11.8654 35.6543L12.0252 36.8031L11.1 36.932ZM15.0079 36.4981L14.8983 35.3435C14.8881 35.2367 14.8616 35.1704 14.8187 35.145C14.7758 35.1193 14.6985 35.1119 14.5862 35.1227C14.4739 35.1332 14.3979 35.1553 14.3579 35.1886C14.3178 35.2221 14.3029 35.2921 14.3132 35.3991L14.7259 39.7442C14.7359 39.8511 14.7637 39.9173 14.8094 39.9428C14.8549 39.968 14.9337 39.9754 15.046 39.9646C15.1583 39.954 15.2329 39.932 15.2702 39.8988C15.3077 39.8657 15.3211 39.7955 15.3108 39.6887L15.186 38.3741L16.1161 38.2857L16.241 39.6003C16.2587 39.7876 16.2568 39.9386 16.2355 40.054C16.1669 40.4107 15.7932 40.6214 15.1146 40.6858C14.6925 40.7262 14.3905 40.6982 14.2089 40.6021C13.9759 40.4789 13.8408 40.222 13.8037 39.8318L13.391 35.4866C13.354 35.0967 13.4383 34.819 13.6438 34.6538C13.804 34.5254 14.0953 34.4412 14.5176 34.4011C15.1963 34.3367 15.6029 34.473 15.7375 34.811C15.7801 34.9202 15.8105 35.0682 15.8281 35.2552L15.9379 36.4098L15.0079 36.4981ZM17.3527 35.145C17.3318 34.7484 17.428 34.4746 17.6404 34.3235C17.806 34.2023 18.1006 34.1302 18.5243 34.108C19.205 34.0723 19.6057 34.2262 19.7256 34.5694C19.7636 34.6803 19.7876 34.8295 19.7975 35.0171L20.0256 39.3759C20.0354 39.5637 20.0274 39.7144 20.001 39.8287C19.9172 40.1824 19.535 40.3771 18.8543 40.4125C18.4307 40.4349 18.1302 40.3943 17.9527 40.2906C17.7257 40.1629 17.6016 39.9006 17.5808 39.5037L17.3527 35.145ZM19.0927 39.4246L18.8646 35.0658C18.8592 34.9585 18.8354 34.8914 18.7934 34.864C18.7515 34.8368 18.6748 34.826 18.562 34.8319C18.4495 34.8382 18.3724 34.8565 18.3313 34.8882C18.2898 34.92 18.272 34.9893 18.2777 35.0964L18.5058 39.4553C18.5112 39.5626 18.5363 39.6299 18.5807 39.6572C18.6252 39.6841 18.7038 39.6949 18.8163 39.689C18.929 39.6826 19.0044 39.6643 19.0431 39.633C19.0819 39.6013 19.0983 39.5318 19.0927 39.4246ZM21.4575 40.2395L21.3927 34.0394L22.3026 34.0299L22.3587 39.4326L22.9305 39.4272L22.8743 34.0242L23.7844 34.0147L23.8406 39.4177L24.0983 39.4149L24.1168 41.1945L23.3032 41.2036L23.2933 40.2211L21.4575 40.2395ZM25.5088 34.0071L26.362 34.0338L26.2583 37.3417L27.0541 34.0556L27.9074 34.0823L27.7132 40.2798L26.8599 40.2531L26.9636 36.9449L26.1678 40.2312L25.3146 40.2045L25.5088 34.0071ZM31.6615 40.4743L30.7206 40.4252L30.6646 38.874L29.9328 38.8356L29.6913 40.3712L28.8629 40.3278L29.8947 34.1727L31.278 34.2451L31.6615 40.4743ZM30.5176 35.0602L30.0637 38.0278L30.6266 38.0573L30.5176 35.0602ZM32.8071 40.5972L33.3936 34.4245L34.2993 34.5106L33.7884 39.8896L34.3576 39.9435L34.8685 34.5645L35.7744 34.6506L35.2635 40.0296L35.5199 40.054L35.3516 41.8259L34.5418 41.7488L34.6347 40.7709L32.8071 40.5972ZM37.495 34.8805L38.3405 34.9983L37.8841 38.2763L39.0264 35.0939L39.8718 35.2115L39.0166 41.3527L38.1713 41.2351L38.6277 37.9569L37.4852 41.1395L36.6398 41.0219L37.495 34.8805ZM42.7697 42.0498L41.8748 41.8832L42.3585 39.2865L41.219 41.7611L40.2679 41.5839L41.4389 39.1236C41.3436 39.0784 41.2609 39.0219 41.1918 38.9546C41.022 38.781 41.0056 38.3275 41.1423 37.594L41.2779 36.8653C41.386 36.2848 41.534 35.9287 41.7222 35.7974C41.9105 35.6659 42.2951 35.6543 42.8756 35.7625L43.9048 35.9541L42.7697 42.0498ZM42.8746 36.5159L42.5422 36.454C42.4896 36.444 42.4512 36.4424 42.4284 36.4486C42.3475 36.472 42.2689 36.6893 42.1923 37.101L42.067 37.7741C41.9863 38.2068 41.9816 38.4516 42.0529 38.5084C42.0764 38.5292 42.1091 38.5433 42.1515 38.5513L42.4838 38.6132L42.8746 36.5159Z" fill="white"/>
<path fill-rule="evenodd" clip-rule="evenodd" d="M4.12441 51.4624V53.0525C4.12441 53.0525 4.18738 53.9026 3.47893 53.9026C2.88067 53.9026 2.88069 53.0525 2.88069 53.0525V46.2357C2.88069 46.2357 2.88067 45.3854 3.47893 45.3854C4.18738 45.3854 4.12441 46.2357 4.12441 46.2357V47.8256H5.71447V46.2357C5.71447 46.2357 5.73014 43.7325 3.44731 43.7325C1.16457 43.7325 1.18042 46.2357 1.18042 46.2357V53.0525C1.18042 53.0525 1.16457 55.5556 3.44731 55.5556C5.73014 55.5556 5.71447 53.0525 5.71447 53.0525V51.4624H4.12441ZM6.44367 55.4297H10.3321V53.6823H8.14392V50.5019H9.7182V48.6443H8.14392V45.6058H10.3321V43.8583H6.44367V55.4297ZM14.525 55.4297L15.6113 48.1563L15.6742 47.6682H15.7688V48.1563V55.4297H17.3431V43.8583H15.2648L14.2573 49.148L14.1785 49.7622H14.1471L14.0683 49.148L13.0609 43.8583H10.9828V55.4297H12.5572V48.1563V47.6682H12.6514L12.7146 48.1563L13.8009 55.4297H14.525ZM18.3085 55.4297H22.1969V53.6823H20.0086V50.5019H21.583V48.6443H20.0086V45.6058H22.1969V43.8583H18.3085V55.4297ZM24.3587 55.4297H22.8476V43.8583H24.4059V49.8881V50.4234H24.5005L24.6422 49.8881L26.2952 43.8583H27.8066V55.4297H26.248V49.4V48.8647H26.1536L26.0119 49.4L24.3587 55.4297ZM26.2323 41.3865C26.2323 41.3865 25.9174 41.7487 25.3192 41.7487C24.7524 41.7487 24.4375 41.3865 24.4375 41.3865L23.5873 42.1109C23.5873 42.1109 24.2172 42.8507 25.3192 42.8507C26.3897 42.8507 27.0509 42.1109 27.0509 42.1109L26.2323 41.3865ZM31.7948 55.4297H33.4952V43.8583H31.7948V48.6443H30.4724V43.8583H28.7722C28.7722 43.937 28.7722 55.4297 28.7722 55.4297H30.4724V50.3917H31.7948V55.4297ZM38.8843 53.0525V46.2357C38.8843 46.2357 38.9 43.7325 36.6172 43.7325C34.3344 43.7325 34.3503 46.2357 34.3503 46.2357V53.0525C34.3503 53.0525 34.3344 55.5556 36.6172 55.5556C38.9 55.5556 38.8843 53.0525 38.8843 53.0525ZM37.1841 46.2357V53.0525C37.1841 53.0525 37.2155 53.9026 36.6172 53.9026C36.019 53.9026 36.0505 53.0525 36.0505 53.0525V46.2357C36.0505 46.2357 36.019 45.3854 36.6172 45.3854C37.2155 45.3854 37.1841 46.2357 37.1841 46.2357ZM43.7856 43.8583C39.9128 43.8583 39.7397 43.8583 39.7397 43.8583V55.4297H41.4399V45.6058H43.7856V43.8583ZM48.6081 53.0525V46.2357C48.6081 46.2357 48.6237 43.7325 46.3409 43.7325C44.0582 43.7325 44.074 46.2357 44.074 46.2357V53.0525C44.074 53.0525 44.0582 55.5556 46.3409 55.5556C48.6237 55.5556 48.6081 53.0525 48.6081 53.0525ZM46.9078 46.2357V53.0525C46.9078 53.0525 46.9392 53.9026 46.3409 53.9026C45.7427 53.9026 45.7743 53.0525 45.7743 53.0525V46.2357C45.7743 46.2357 45.7427 45.3854 46.3409 45.3854C46.9392 45.3854 46.9078 46.2357 46.9078 46.2357Z" fill="white"/>
<path fill-rule="evenodd" clip-rule="evenodd" d="M6.23749 57.4415H0.957031V72.5425H3.17616C5.1073 72.5425 7.07977 71.4948 7.07977 68.0224C7.07977 64.5503 5.1073 63.482 3.17616 63.482V59.722H6.23749V57.4415ZM3.17616 65.7419C4.5732 65.7419 4.84044 66.2556 4.84044 67.9402C4.84044 69.625 4.5732 70.2826 3.17616 70.2826V65.7419ZM11.9461 64.6736L12.1311 63.9749H12.2544V64.6736V72.5425H14.2885V57.4415H12.316L10.1589 65.3104L9.97391 66.0091H9.85058V65.3104V57.4415H7.81649V72.5425H9.78895L11.9461 64.6736ZM17.2235 65.7213C19.1549 65.8241 18.9083 66.9335 18.9083 68.8444C18.9083 69.7072 18.9083 70.755 18.2096 70.755C17.655 70.755 17.47 70.2209 17.4496 68.1868H15.2718C15.2718 69.8921 15.436 72.7068 18.2096 72.7068C20.9833 72.7068 21.086 69.0704 21.086 68.68C21.086 66.9335 20.8808 65.372 19.8122 64.5297L19.8327 64.5093C20.5109 63.8311 20.9014 62.7628 20.9014 60.5234C20.9014 60.133 20.7986 57.2771 18.0249 57.2771C15.2513 57.2771 15.1896 60.0919 15.1896 61.7972H17.3674C17.3878 59.7631 17.47 59.2291 18.0249 59.2291C18.7234 59.2291 18.7234 60.3179 18.7234 61.1807C18.7234 63.0916 18.8877 63.7695 17.0385 63.8722V65.7213H17.2235ZM26.0143 72.5425H28.2331V57.4415H26.0143V63.6873H24.2884V57.4415H22.0693C22.0693 57.5442 22.0693 72.5425 22.0693 72.5425H24.2884V65.968H26.0143V72.5425ZM29.5038 72.5425H34.5788V70.262H31.7229V66.1118H33.7773V63.6873H31.7229V59.722H34.5788V57.4415H29.5038V72.5425ZM39.1369 67.365V69.44C39.1369 69.44 39.2191 70.5494 38.2944 70.5494C37.5138 70.5494 37.5138 69.44 37.5138 69.44V60.5439C37.5138 60.5439 37.5138 59.4345 38.2944 59.4345C39.2191 59.4345 39.1369 60.5439 39.1369 60.5439V62.6189H41.2119V60.5439C41.2119 60.5439 41.2324 57.2771 38.2533 57.2771C35.2743 57.2771 35.2949 60.5439 35.2949 60.5439V69.44C35.2949 69.44 35.2743 72.7068 38.2533 72.7068C41.2324 72.7068 41.2119 69.44 41.2119 69.44V67.365H39.1369ZM43.7155 72.5425L44.1266 69.4606H46.2631L46.6742 72.5425H48.8316L46.5508 57.4415H43.8389L41.5584 72.5425H43.7155ZM45.9552 67.1185H44.4348L45.0715 62.3518L45.1332 61.5506H45.2565L45.3182 62.3518L45.9552 67.1185Z" fill="white"/>
<path fill-rule="evenodd" clip-rule="evenodd" d="M9.82941 74.4497C9.82941 75.2287 9.82941 76.0062 9.82941 76.7838C9.82941 77.5613 9.82941 78.3389 9.82941 79.1164C9.98608 78.3577 10.1467 77.5945 10.3025 76.8201C10.46 76.0394 10.6226 75.2493 10.7823 74.4497C11.0927 74.4497 11.403 74.4497 11.7133 74.4497C11.5532 75.273 11.3974 76.0885 11.2399 76.894C11.0839 77.6906 10.9265 78.4805 10.7696 79.2629C11.0382 79.3037 11.2635 79.4254 11.4446 79.6328C11.6249 79.8393 11.7133 80.1064 11.7133 80.4275C11.7133 81.271 11.7133 82.113 11.7133 82.9551C11.7133 83.7955 11.7133 84.6394 11.7133 85.4798C11.403 85.3727 11.0927 85.2656 10.7823 85.1588C10.7823 84.3419 10.7823 83.5249 10.7823 82.7064C10.7823 81.8896 10.7823 81.0712 10.7823 80.2544C10.4626 80.1929 10.1458 80.1347 9.82941 80.0748C9.82941 80.8683 9.82941 81.66 9.82941 82.4516C9.82941 83.2449 9.82941 84.0365 9.82941 84.8282C9.51913 84.721 9.20878 84.6142 8.90186 84.5086C8.90186 82.8341 8.90186 81.1562 8.90186 79.4814C8.90186 77.8054 8.90186 76.1275 8.90186 74.4497C9.20878 74.4497 9.51913 74.4497 9.82941 74.4497ZM13.095 79.6232C13.4117 79.6721 13.7281 79.7224 14.0482 79.7712C14.0482 79.0723 14.0482 78.3721 14.0482 77.6731C14.0482 76.9726 14.0482 76.2739 14.0482 75.5735C13.7281 75.5642 13.4117 75.5532 13.095 75.5421C13.095 76.2236 13.095 76.9036 13.095 77.5835C13.095 78.2634 13.095 78.9433 13.095 79.6232ZM14.0482 74.4497C14.2719 74.4497 14.4839 74.575 14.6813 74.8275C14.8804 75.0819 14.9788 75.3423 14.9788 75.6051C14.9788 77.4401 14.9788 79.2739 14.9788 81.1075C14.9788 82.9425 14.9788 84.7763 14.9788 86.6098C14.6686 86.5012 14.3582 86.3943 14.0482 86.2871C14.0482 85.3853 14.0482 84.4803 14.0482 83.577C14.0482 82.6736 14.0482 81.7699 14.0482 80.865C13.7281 80.8051 13.4117 80.7455 13.095 80.6872C13.095 81.567 13.095 82.4452 13.095 83.3234C13.095 84.2017 13.095 85.0814 13.095 85.9581C12.7846 85.8513 12.4743 85.7426 12.1641 85.6355C12.1641 83.95 12.1641 82.261 12.1641 80.5754C12.1641 78.8881 12.1641 77.1994 12.1641 75.5121C12.1641 75.2699 12.2681 75.0366 12.4679 74.8038C12.6681 74.5709 12.8774 74.4497 13.095 74.4497C13.4117 74.4497 13.7281 74.4497 14.0482 74.4497ZM15.4299 75.6192C15.4299 75.2916 15.5221 75.0158 15.705 74.7913C15.8899 74.5643 16.1077 74.4497 16.3606 74.4497C16.6773 74.4497 16.994 74.4497 17.3138 74.4497C17.5567 74.4497 17.7746 74.5881 17.9662 74.8637C18.1586 75.1404 18.2573 75.4255 18.2573 75.7119C18.2573 76.3574 18.2573 77.0027 18.2573 77.6464C18.2573 78.2901 18.2573 78.9354 18.2573 79.5791C18.2573 80.1648 18.0846 80.503 17.7422 80.5911C17.9246 80.7185 18.0554 80.8511 18.1357 80.9862C18.2154 81.1202 18.2573 81.3451 18.2573 81.6535C18.2573 82.4657 18.2573 83.2777 18.2573 84.0869C18.2573 84.8957 18.2573 85.7079 18.2573 86.5168C18.2573 86.871 18.1645 87.131 17.9791 87.3023C17.7967 87.4708 17.5722 87.5058 17.3138 87.4172C16.9932 87.3075 16.6775 87.1944 16.3606 87.085C16.1018 86.9961 15.8827 86.8102 15.7017 86.5263C15.5214 86.2435 15.4299 85.9471 15.4299 85.6294C15.4299 85.0296 15.4299 84.43 15.4299 83.8302C15.7402 83.9122 16.0502 83.9939 16.3606 84.0743C16.3606 84.6898 16.3606 85.305 16.3606 85.9203C16.6803 86.0196 17.0035 86.122 17.3266 86.2243C17.3266 85.3632 17.3266 84.5006 17.3266 83.6414C17.3266 82.782 17.3266 81.9197 17.3266 81.0571C16.9906 80.9988 16.6549 80.9404 16.3222 80.8809C16.3222 80.492 16.3222 80.1033 16.3222 79.7144C16.6549 79.7632 16.9906 79.8121 17.3266 79.8593C17.3266 79.1637 17.3266 78.4663 17.3266 77.7708C17.3266 77.0751 17.3266 76.3777 17.3266 75.6821C17.0035 75.6711 16.6803 75.66 16.3606 75.649C16.3606 76.1339 16.3606 76.6171 16.3606 77.1018C16.0502 77.0797 15.7402 77.0561 15.4299 77.034C15.4299 76.5619 15.4299 76.0913 15.4299 75.6192ZM19.6358 80.64C19.9525 80.6887 20.2723 80.7391 20.5922 80.7894C20.5922 79.9554 20.5922 79.1226 20.5922 78.2885C20.5922 77.4558 20.5922 76.6217 20.5922 75.7892C20.2723 75.7782 19.9525 75.7671 19.6358 75.7577C19.6358 76.5714 19.6358 77.3852 19.6358 78.1989C19.6358 79.0124 19.6358 79.8261 19.6358 80.64ZM20.5922 74.4497C20.8161 74.4497 21.024 74.601 21.2223 74.8985C21.4236 75.2005 21.5197 75.5075 21.5197 75.819C21.5197 77.9958 21.5197 80.1709 21.5197 82.346C21.5197 84.5212 21.5197 86.6979 21.5197 88.8715C21.2094 88.7629 20.8991 88.656 20.5922 88.5504C20.5922 87.4754 20.5922 86.3973 20.5922 85.3223C20.5922 84.2458 20.5922 83.1693 20.5922 82.091C20.2723 82.0314 19.9525 81.9715 19.6358 81.9132C19.6358 82.9646 19.6358 84.0159 19.6358 85.0673C19.6358 86.1187 19.6358 87.17 19.6358 88.2198C19.3256 88.113 19.0153 88.0043 18.7083 87.8988C18.7083 85.8716 18.7083 83.8413 18.7083 81.8141C18.7083 79.7854 18.7083 77.7566 18.7083 75.7263C18.7083 75.4365 18.8082 75.1537 19.0088 74.8748C19.2112 74.5935 19.4183 74.4497 19.6358 74.4497C19.9525 74.4497 20.2723 74.4497 20.5922 74.4497ZM23.3843 79.9615C23.4612 79.052 23.5415 78.1376 23.6181 77.2231C23.6948 76.3038 23.7779 75.3783 23.8577 74.4497C24.165 74.4497 24.4753 74.4497 24.7853 74.4497C24.6895 75.6146 24.5937 76.7712 24.5006 77.9251C24.4082 79.0723 24.3121 80.2135 24.2192 81.353C24.4878 81.3938 24.6514 81.5449 24.7054 81.8046C24.7601 82.0674 24.7853 82.4231 24.7853 82.8765C24.7853 84.0648 24.7853 85.253 24.7853 86.4397C24.7853 87.6265 24.7853 88.8147 24.7853 89.9999C24.4753 89.8913 24.165 89.786 23.8577 89.6789C23.8577 88.5173 23.8577 87.3542 23.8577 86.1926C23.8577 85.0295 23.8577 83.8665 23.8577 82.7033C23.5379 82.6435 23.2181 82.5836 22.9014 82.5238C22.9014 83.662 22.9014 84.8015 22.9014 85.9378C22.9014 87.0742 22.9014 88.2121 22.9014 89.3483C22.5911 89.2415 22.281 89.1343 21.9738 89.0274C21.9738 87.9163 21.9738 86.8017 21.9738 85.6907C21.9738 84.578 21.9738 83.4637 21.9738 82.3507C21.9738 81.9243 21.999 81.5999 22.0538 81.3703C22.108 81.1436 22.2713 81.0491 22.5369 81.0918C22.4408 79.9726 22.345 78.8583 22.2523 77.7502C22.1596 76.6454 22.0665 75.5467 21.9738 74.4497C22.281 74.4497 22.5911 74.4497 22.9014 74.4497C22.9815 75.361 23.0617 76.277 23.1414 77.1915C23.2215 78.1106 23.3014 79.036 23.3843 79.9615ZM27.1331 77.6148C27.1331 77.0374 27.1331 76.4597 27.1331 75.8819C26.8133 75.893 26.4966 75.904 26.1798 75.9151C26.1798 78.0053 26.1798 80.0969 26.1798 82.1871C26.1798 84.2756 26.1798 86.3658 26.1798 88.4559C26.4966 88.3506 26.8133 88.245 27.1331 88.1397C27.1331 87.4488 27.1331 86.7577 27.1331 86.0683C27.4433 85.9802 27.7536 85.8937 28.064 85.8055C28.064 86.4809 28.064 87.1559 28.064 87.8312C28.064 88.1492 27.9635 88.49 27.7662 88.8559C27.5671 89.2252 27.3571 89.4492 27.1331 89.5309C26.8133 89.6475 26.4963 89.7631 26.1798 89.8787C25.9623 89.9583 25.7511 89.8805 25.553 89.6411C25.3514 89.3973 25.2492 89.0508 25.2492 88.711C25.2492 86.5846 25.2492 84.4552 25.2492 82.3273C25.2492 80.2009 25.2492 78.0697 25.2492 75.9418C25.2492 75.602 25.3524 75.2701 25.553 74.9408C25.7521 74.6138 25.9625 74.4497 26.1798 74.4497C26.4966 74.4497 26.8133 74.4497 27.1331 74.4497C27.3571 74.4497 27.5674 74.6077 27.7662 74.9157C27.964 75.2213 28.064 75.5311 28.064 75.8491C28.064 76.4139 28.064 76.979 28.064 77.5426C27.7536 77.5678 27.4433 77.5911 27.1331 77.6148ZM31.1887 74.4497C31.1887 74.881 31.1887 75.3107 31.1887 75.742C30.8754 75.7514 30.5617 75.7623 30.2484 75.7733C30.2484 77.8779 30.2484 79.9821 30.2484 82.0849C30.2484 84.1876 30.2484 86.2918 30.2484 88.393C29.9285 88.5112 29.6118 88.626 29.2951 88.7408C29.2951 86.5862 29.2951 84.43 29.2951 82.2752C29.2951 80.1205 29.2951 77.9629 29.2951 75.8065C28.9851 75.8175 28.6747 75.8286 28.3645 75.8396C28.3645 75.3767 28.3645 74.9141 28.3645 74.4497C29.3049 74.4497 30.2452 74.4497 31.1887 74.4497ZM32.433 80.3597C32.7497 80.3078 33.0695 80.2559 33.3894 80.2025C33.3894 79.4471 33.3894 78.6898 33.3894 77.9343C33.3894 77.1774 33.3894 76.4219 33.3894 75.6649C33.0695 75.6757 32.7497 75.6867 32.433 75.6978C32.433 76.4754 32.433 77.2529 32.433 78.0288C32.433 78.8064 32.433 79.5839 32.433 80.3597ZM33.3894 74.4497C33.6133 74.4497 33.8206 74.5837 34.0194 74.8432C34.2172 75.1016 34.3168 75.3641 34.3168 75.6334C34.3168 77.5126 34.3168 79.3933 34.3168 81.2726C34.3168 83.1503 34.3168 85.0311 34.3168 86.9088C34.0066 87.0221 33.6963 87.1338 33.3894 87.2473C33.3894 86.2715 33.3894 85.2939 33.3894 84.3183C33.3894 83.3409 33.3894 82.3632 33.3894 81.3858C33.0695 81.4491 32.7497 81.512 32.433 81.575C32.433 82.579 32.433 83.5831 32.433 84.5873C32.433 85.5898 32.433 86.5942 32.433 87.5967C32.1227 87.7084 31.8124 87.8233 31.5054 87.935C31.5054 85.9017 31.5054 83.868 31.5054 81.8331C31.5054 79.7995 31.5054 77.7661 31.5054 75.731C31.5054 75.4396 31.6033 75.1509 31.806 74.8684C32.0064 74.5892 32.2154 74.4497 32.433 74.4497C32.7497 74.4497 33.0695 74.4497 33.3894 74.4497ZM35.7114 74.4497C35.7114 75.3469 35.7114 76.2424 35.7114 77.1365C35.7114 78.0319 35.7114 78.9258 35.7114 79.8215C36.0281 79.7697 36.3446 79.7175 36.6646 79.6641C36.6646 78.7954 36.6646 77.9266 36.6646 77.0577C36.6646 76.1889 36.6646 75.3202 36.6646 74.4497C36.9747 74.4497 37.285 74.4497 37.5953 74.4497C37.5953 76.3274 37.5953 78.2066 37.5953 80.0828C37.5953 81.959 37.5953 83.8349 37.5953 85.711C37.285 85.8243 36.9747 85.9378 36.6646 86.0495C36.6646 85.1649 36.6646 84.2787 36.6646 83.3944C36.6646 82.5081 36.6646 81.6222 36.6646 80.736C36.3446 80.8005 36.0281 80.8634 35.7114 80.9263C35.7114 81.8393 35.7114 82.7522 35.7114 83.6635C35.7114 84.5747 35.7114 85.4875 35.7114 86.3989C35.4011 86.5121 35.0908 86.6255 34.7805 86.7388C34.7805 84.6928 34.7805 82.6435 34.7805 80.596C34.7805 78.5483 34.7805 76.4989 34.7805 74.4497C35.0908 74.4497 35.4011 74.4497 35.7114 74.4497ZM39.0027 79.2816C39.3194 79.2297 39.6358 79.1779 39.9557 79.1244C39.9557 78.5105 39.9557 77.8951 39.9557 77.2811C39.9557 76.6659 39.9557 76.052 39.9557 75.4381C39.6358 75.4491 39.3194 75.4602 39.0027 75.4713C39.0027 76.1055 39.0027 76.7414 39.0027 77.3757C39.0027 78.0114 39.0027 78.6474 39.0027 79.2816ZM39.9557 74.4497C40.1796 74.4497 40.3877 74.5584 40.5891 74.7692C40.7874 74.977 40.8865 75.1879 40.8865 75.4052C40.8865 76.9223 40.8865 78.4411 40.8865 79.9584C40.8865 81.4743 40.8865 82.9928 40.8865 84.5086C40.5762 84.6219 40.2659 84.7351 39.9557 84.8487C39.9557 84.0552 39.9557 83.2621 39.9557 82.4673C39.9557 81.6741 39.9557 80.8809 39.9557 80.0859C39.6358 80.1488 39.3194 80.2117 39.0027 80.275C39.0027 81.0964 39.0027 81.9179 39.0027 82.738C39.0027 83.5579 39.0027 84.3778 39.0027 85.198C38.6924 85.3097 38.3821 85.4231 38.0717 85.5364C38.0717 83.865 38.0717 82.192 38.0717 80.5202C38.0717 78.8488 38.0717 77.1758 38.0717 75.5029C38.0717 75.2635 38.1707 75.0253 38.3726 74.7944C38.5737 74.5642 38.7851 74.4497 39.0027 74.4497C39.3194 74.4497 39.6358 74.4497 39.9557 74.4497Z" fill="white"/>
<path fill-rule="evenodd" clip-rule="evenodd" d="M25.6884 32.6128C25.7456 32.7607 25.672 32.927 25.5241 32.9842C25.3762 33.0414 25.2099 32.9678 25.1527 32.8199C24.697 31.6479 24.4894 29.2231 24.6765 27.0093C24.8314 25.1777 25.2607 23.4684 26.0488 22.6743C28.6412 20.0627 28.8449 19.9392 31.4931 18.3341C31.6737 18.2246 31.872 18.1045 32.3956 17.7852C34.0969 16.748 34.6511 16.2896 36.1336 15.0635L36.1462 15.0531C36.7434 14.5593 38.4009 12.9733 39.5882 11.5814C40.3078 10.7376 40.8471 9.99033 40.8316 9.67407C40.8307 9.64861 40.8319 9.60703 40.8334 9.56716V9.56625C40.8337 9.55809 40.834 9.54875 40.834 9.51268C40.834 9.35365 40.963 9.22461 41.122 9.22461C41.2812 9.22461 41.4101 9.35365 41.4101 9.51268C41.4101 9.51812 41.4083 9.54577 41.4074 9.58655C41.4065 9.61319 41.4056 9.64054 41.4056 9.64725C41.4292 10.1321 40.8289 11.0125 40.0248 11.9553C38.8146 13.3741 37.123 14.9923 36.5131 15.4967L36.5005 15.5072C34.9975 16.7502 34.4357 17.215 32.695 18.2761C32.5564 18.3606 32.1558 18.6034 31.7902 18.825C29.2012 20.3942 29.002 20.515 26.4563 23.0796C25.7747 23.7662 25.3953 25.3432 25.2505 27.0567C25.0696 29.1954 25.2608 31.5136 25.6884 32.6131V32.6128Z" fill="white"/>
<path fill-rule="evenodd" clip-rule="evenodd" d="M26.2526 22.8771C26.2115 22.7025 29.5728 17.53 30.0681 16.5766C31.1945 14.4084 33.2833 8.53904 32.1498 6.14819" fill="white"/>
<path fill-rule="evenodd" clip-rule="evenodd" d="M26.5328 22.8117C26.5688 22.9664 26.4726 23.1211 26.3178 23.1572C26.1632 23.1932 26.0085 23.097 25.9724 22.9422C25.9229 22.7316 26.9578 21.0784 27.9807 19.4442C28.7878 18.1547 29.5873 16.8776 29.8127 16.4438C30.4684 15.1816 31.4549 12.6468 31.9246 10.2936C32.2445 8.69138 32.3245 7.1876 31.8899 6.27073C31.8221 6.12719 31.8835 5.95592 32.0272 5.88813C32.1707 5.82044 32.342 5.88181 32.4098 6.02544C32.9048 7.06971 32.8306 8.69728 32.4895 10.4061C32.0088 12.8148 30.9967 15.4137 30.3236 16.7093C30.1021 17.1356 29.2884 18.4356 28.4668 19.7481C27.5076 21.2804 26.5283 22.7927 26.5328 22.8117Z" fill="white"/>
<path fill-rule="evenodd" clip-rule="evenodd" d="M24.6375 32.8199C24.5803 32.9678 24.4141 33.0414 24.2662 32.9842C24.1183 32.927 24.0447 32.7607 24.1019 32.6129C24.5295 31.5133 24.7206 29.1951 24.5398 27.0565C24.3949 25.3429 24.0155 23.7659 23.3341 23.0794C20.7883 20.5147 20.5891 20.3939 18.0001 18.8247C17.6344 18.6032 17.2338 18.3603 17.0953 18.2758C15.3547 17.2147 14.7927 16.7499 13.2898 15.5069L13.2772 15.4964C12.6672 14.992 10.9757 13.3738 9.76549 11.955C8.96135 11.0122 8.36102 10.1319 8.38476 9.64698C8.38503 9.64063 8.38411 9.61292 8.38293 9.58628H8.38285C8.38104 9.5455 8.38013 9.51785 8.38013 9.51241C8.38013 9.35338 8.50908 9.22437 8.6682 9.22437C8.82723 9.22437 8.95627 9.35338 8.95627 9.51241C8.95627 9.54848 8.95654 9.55773 8.95681 9.56598V9.56689C8.95863 9.60676 8.95953 9.64834 8.95863 9.6738C8.94313 9.99006 9.4824 10.7374 10.2021 11.5811C11.3894 12.973 13.0468 14.559 13.644 15.0528L13.6567 15.0633C15.1391 16.2893 15.6933 16.7478 17.3947 17.785C17.9182 18.1042 18.1165 18.2244 18.2971 18.3338C20.9453 19.9389 21.1491 20.0625 23.7414 22.674C24.5297 23.4681 24.9588 25.1774 25.1137 27.009C25.3009 29.2229 25.0932 31.6476 24.6375 32.8197V32.8199Z" fill="white"/>
<path fill-rule="evenodd" clip-rule="evenodd" d="M23.5379 22.8771C23.5789 22.7025 20.2176 17.53 19.7223 16.5766C18.596 14.4084 16.5071 8.53904 17.6407 6.14819" fill="white"/>
<path fill-rule="evenodd" clip-rule="evenodd" d="M23.8179 22.9422C23.7819 23.097 23.6272 23.1932 23.4724 23.1571C23.3178 23.1211 23.2215 22.9664 23.2575 22.8117C23.262 22.7927 22.2827 21.2806 21.3236 19.7483C20.502 18.4357 19.6882 17.1356 19.4667 16.7093C18.7937 15.4136 17.7816 12.8148 17.3008 10.4061C16.9597 8.69726 16.8855 7.0697 17.3806 6.02542C17.4483 5.88188 17.6196 5.82043 17.7632 5.88812C17.9067 5.9559 17.9682 6.12718 17.9005 6.27072C17.4658 7.18758 17.5459 8.69137 17.8657 10.2936C18.3353 12.6468 19.322 15.1816 19.9776 16.4438C20.2031 16.8776 21.0026 18.1549 21.8098 19.4445C22.8326 21.0786 23.8674 22.7315 23.8179 22.9422Z" fill="white"/>
<path fill-rule="evenodd" clip-rule="evenodd" d="M25.1897 29.1985C25.1897 29.3576 25.0606 29.4866 24.9016 29.4866C24.7425 29.4866 24.6135 29.3576 24.6135 29.1985V4.44628C24.6135 4.28715 24.7425 4.1582 24.9016 4.1582C25.0606 4.1582 25.1897 4.28715 25.1897 4.44628V29.1985Z" fill="white"/>
<path fill-rule="evenodd" clip-rule="evenodd" d="M42.1806 5.39502C43.3017 7.15 42.7589 9.16997 41.0393 10.0089C39.987 8.37897 40.4121 6.39108 42.1806 5.39502Z" fill="white"/>
<path fill-rule="evenodd" clip-rule="evenodd" d="M30.8486 1.93188C32.7193 2.84694 33.3071 4.85428 32.2754 6.46554C30.5284 5.62153 29.8569 3.70291 30.8486 1.93188Z" fill="white"/>
<path fill-rule="evenodd" clip-rule="evenodd" d="M7.64065 5.46606C6.51953 7.22096 7.06234 9.24102 8.78198 10.0799C9.83432 8.45002 9.40914 6.46213 7.64065 5.46606Z" fill="white"/>
<path fill-rule="evenodd" clip-rule="evenodd" d="M18.9727 2.00293C17.102 2.91798 16.5142 4.92535 17.5459 6.53662C19.2928 5.69261 19.9643 3.77386 18.9727 2.00293Z" fill="white"/>
<path fill-rule="evenodd" clip-rule="evenodd" d="M24.9015 4.75287C26.4112 3.3184 26.3693 1.22723 24.9015 0C23.4885 1.32945 23.4239 3.36126 24.9015 4.75287Z" fill="white"/>
<path fill-rule="evenodd" clip-rule="evenodd" d="M29.0145 8.41089C31.0503 8.84975 32.1031 10.6571 31.4887 12.469C29.5902 12.0694 28.4774 10.3683 29.0145 8.41089Z" fill="white"/>
<path fill-rule="evenodd" clip-rule="evenodd" d="M35.5733 7.38574C33.4915 7.4422 32.1239 9.02473 32.3941 10.9188C34.3337 10.8757 35.7408 9.4085 35.5733 7.38574Z" fill="white"/>
<path fill-rule="evenodd" clip-rule="evenodd" d="M37.6672 9.53735C39.0073 11.1314 38.7321 13.2049 37.1364 14.2605C35.8808 12.7815 36.0435 10.7552 37.6672 9.53735Z" fill="white"/>
<path fill-rule="evenodd" clip-rule="evenodd" d="M43.0401 12.7454C41.3601 11.5147 39.3097 11.9274 38.3628 13.59C39.9222 14.7442 41.9331 14.4468 43.0401 12.7454Z" fill="white"/>
<path fill-rule="evenodd" clip-rule="evenodd" d="M20.726 8.41089C18.6902 8.84975 17.6374 10.6571 18.2517 12.469C20.1503 12.0694 21.263 10.3683 20.726 8.41089Z" fill="white"/>
<path fill-rule="evenodd" clip-rule="evenodd" d="M14.338 7.38574C16.4197 7.4422 17.7874 9.02473 17.5172 10.9188C15.5776 10.8757 14.1705 9.4085 14.338 7.38574Z" fill="white"/>
<path fill-rule="evenodd" clip-rule="evenodd" d="M12.2441 9.53735C10.9041 11.1314 11.1792 13.2049 12.7749 14.2605C14.0305 12.7815 13.8678 10.7552 12.2441 9.53735Z" fill="white"/>
<path fill-rule="evenodd" clip-rule="evenodd" d="M6.74927 12.7454C8.42913 11.5147 10.4796 11.9274 11.4265 13.59C9.86714 14.7442 7.85616 14.4468 6.74927 12.7454Z" fill="white"/>
<path fill-rule="evenodd" clip-rule="evenodd" d="M28.4194 4.80775C26.3371 4.79126 24.9147 6.32488 25.1185 8.2273C27.0585 8.25213 28.516 6.83513 28.4194 4.80775Z" fill="white"/>
<path fill-rule="evenodd" clip-rule="evenodd" d="M21.3641 6.61268C23.4466 6.59619 24.8689 8.1299 24.6651 10.0323C22.7252 10.0571 21.2676 8.64015 21.3641 6.61268Z" fill="white"/>
<path fill-rule="evenodd" clip-rule="evenodd" d="M16.4392 13.0984C15.0991 14.6924 15.3742 16.766 16.97 17.8216C18.2256 16.3426 18.0629 14.3163 16.4392 13.0984Z" fill="white"/>
<path fill-rule="evenodd" clip-rule="evenodd" d="M10.9443 16.3065C12.6243 15.0757 14.6748 15.4884 15.6216 17.151C14.0622 18.3053 12.0513 18.0078 10.9443 16.3065Z" fill="white"/>
<path fill-rule="evenodd" clip-rule="evenodd" d="M33.9599 12.8545C35.3001 14.4485 35.0249 16.522 33.4292 17.5777C32.1735 16.0987 32.3362 14.0724 33.9599 12.8545Z" fill="white"/>
<path fill-rule="evenodd" clip-rule="evenodd" d="M39.3327 16.0626C37.6529 14.8318 35.6024 15.2446 34.6555 16.9071C36.215 18.0613 38.2258 17.7639 39.3327 16.0626Z" fill="white"/>
<path fill-rule="evenodd" clip-rule="evenodd" d="M21.0982 11.7695C19.2606 12.7494 18.7432 14.7759 19.8306 16.3502C21.5469 15.4458 22.1511 13.5049 21.0982 11.7695Z" fill="white"/>
<path fill-rule="evenodd" clip-rule="evenodd" d="M28.3928 12.2664C30.2304 13.2461 30.7479 15.2728 29.6605 16.8471C27.9442 15.9425 27.3399 14.0016 28.3928 12.2664Z" fill="white"/>
<path fill-rule="evenodd" clip-rule="evenodd" d="M27.8966 10.5466C25.8259 10.767 24.5872 12.4525 25.0059 14.3194C26.9361 14.1234 28.2231 12.5499 27.8966 10.5466Z" fill="white"/>
<path fill-rule="evenodd" clip-rule="evenodd" d="M21.9529 14.7451C24.0238 14.9655 25.2624 16.6509 24.8437 18.5179C22.9135 18.3219 21.6265 16.7484 21.9529 14.7451Z" fill="white"/>
<path fill-rule="evenodd" clip-rule="evenodd" d="M27.8966 16.4978C25.8259 16.7182 24.5872 18.4037 25.0059 20.2706C26.9361 20.0746 28.2231 18.5011 27.8966 16.4978Z" fill="white"/>
</svg>
