<svg width="33" height="24" viewBox="0 0 33 24" fill="none" xmlns="http://www.w3.org/2000/svg">
<path d="M31.625 13.2917H1.375C0.615997 13.2917 0 12.6757 0 11.9167C0 11.1577 0.615997 10.5417 1.375 10.5417H31.625C32.384 10.5417 33 11.1577 33 11.9167C33 12.6757 32.384 13.2917 31.625 13.2917Z" fill="black"/>
<path d="M31.625 2.75H1.375C0.615997 2.75 0 2.134 0 1.375C0 0.615997 0.615997 0 1.375 0H31.625C32.384 0 33 0.615997 33 1.375C33 2.134 32.384 2.75 31.625 2.75Z" fill="black"/>
<path d="M31.625 23.8331H1.375C0.615997 23.8331 0 23.2171 0 22.4581C0 21.6991 0.615997 21.0831 1.375 21.0831H31.625C32.384 21.0831 33 21.6991 33 22.4581C33 23.2171 32.384 23.8331 31.625 23.8331Z" fill="black"/>
</svg>
